<svg width="17" height="21" viewBox="0 0 17 21" fill="none" xmlns="http://www.w3.org/2000/svg">
<path d="M12.288 0.391724C12.3345 0.391724 12.3811 0.391724 12.4302 0.391724C12.5444 1.80217 12.0061 2.85605 11.3518 3.61923C10.7098 4.37714 9.83068 5.11223 8.40882 5.00069C8.31397 3.61045 8.8532 2.63473 9.50661 1.8733C10.1126 1.16369 11.2236 0.532241 12.288 0.391724Z" fill="#161616"/>
<path d="M16.5924 15.0723C16.5924 15.0863 16.5924 15.0986 16.5924 15.1118C16.1928 16.322 15.6228 17.3592 14.9273 18.3217C14.2923 19.1956 13.5142 20.3715 12.1248 20.3715C10.9243 20.3715 10.1268 19.5996 8.89643 19.5785C7.59488 19.5574 6.87913 20.224 5.68912 20.3917C5.55299 20.3917 5.41687 20.3917 5.28338 20.3917C4.40953 20.2653 3.70431 19.5732 3.19055 18.9497C1.6756 17.1071 0.504911 14.7271 0.287109 11.6814C0.287109 11.3828 0.287109 11.0851 0.287109 10.7865C0.379324 8.60672 1.43847 6.83444 2.84628 5.97553C3.58926 5.51885 4.61065 5.12979 5.74796 5.30368C6.23538 5.37921 6.73334 5.54607 7.16982 5.71118C7.58347 5.87014 8.10075 6.15205 8.5908 6.13712C8.92277 6.12746 9.25299 5.95445 9.58759 5.83238C10.5677 5.47845 11.5285 5.07271 12.7949 5.26328C14.3169 5.49338 15.3971 6.16962 16.0646 7.21296C14.7771 8.03235 13.7592 9.26715 13.9331 11.3758C14.0877 13.2912 15.2013 14.4118 16.5924 15.0723Z" fill="#161616"/>
</svg>
