<svg width="24" height="25" viewBox="0 0 24 25" fill="none" xmlns="http://www.w3.org/2000/svg">
<path d="M9.46992 15.6718C9.27992 15.6718 9.08992 15.6018 8.93992 15.4518C8.11992 14.6318 7.66992 13.5418 7.66992 12.3918C7.66992 10.0018 9.60992 8.06177 11.9999 8.06177C13.1499 8.06177 14.2399 8.51177 15.0599 9.33177C15.1999 9.47177 15.2799 9.66177 15.2799 9.86177C15.2799 10.0618 15.1999 10.2518 15.0599 10.3918L9.99992 15.4518C9.84992 15.6018 9.65992 15.6718 9.46992 15.6718ZM11.9999 9.56177C10.4399 9.56177 9.16992 10.8318 9.16992 12.3918C9.16992 12.8918 9.29992 13.3718 9.53992 13.7918L13.3999 9.93177C12.9799 9.69177 12.4999 9.56177 11.9999 9.56177Z" fill="#8D8D8D"/>
<path d="M5.60009 18.9017C5.43009 18.9017 5.25009 18.8417 5.11009 18.7217C4.04009 17.8117 3.08009 16.6917 2.26009 15.3917C1.20009 13.7417 1.20009 11.0517 2.26009 9.3917C4.70009 5.5717 8.25009 3.3717 12.0001 3.3717C14.2001 3.3717 16.3701 4.1317 18.2701 5.5617C18.6001 5.8117 18.6701 6.2817 18.4201 6.6117C18.1701 6.9417 17.7001 7.0117 17.3701 6.7617C15.7301 5.5217 13.8701 4.8717 12.0001 4.8717C8.77009 4.8717 5.68009 6.8117 3.52009 10.2017C2.77009 11.3717 2.77009 13.4117 3.52009 14.5817C4.27009 15.7517 5.13009 16.7617 6.08009 17.5817C6.39009 17.8517 6.43009 18.3217 6.16009 18.6417C6.02009 18.8117 5.81009 18.9017 5.60009 18.9017Z" fill="#8D8D8D"/>
<path d="M12.0001 21.4117C10.6701 21.4117 9.37006 21.1417 8.12006 20.6117C7.74006 20.4517 7.56006 20.0117 7.72006 19.6317C7.88006 19.2517 8.32006 19.0717 8.70006 19.2317C9.76006 19.6817 10.8701 19.9117 11.9901 19.9117C15.2201 19.9117 18.3101 17.9717 20.4701 14.5817C21.2201 13.4117 21.2201 11.3717 20.4701 10.2017C20.1601 9.71172 19.8201 9.24172 19.4601 8.80172C19.2001 8.48172 19.2501 8.01172 19.5701 7.74172C19.8901 7.48172 20.3601 7.52172 20.6301 7.85172C21.0201 8.33172 21.4001 8.85172 21.7401 9.39172C22.8001 11.0417 22.8001 13.7317 21.7401 15.3917C19.3001 19.2117 15.7501 21.4117 12.0001 21.4117Z" fill="#8D8D8D"/>
<path d="M12.6901 16.6617C12.3401 16.6617 12.0201 16.4117 11.9501 16.0517C11.8701 15.6417 12.1401 15.2517 12.5501 15.1817C13.6501 14.9817 14.5701 14.0617 14.7701 12.9617C14.8501 12.5517 15.2401 12.2917 15.6501 12.3617C16.0601 12.4417 16.3301 12.8317 16.2501 13.2417C15.9301 14.9717 14.5501 16.3417 12.8301 16.6617C12.7801 16.6517 12.7401 16.6617 12.6901 16.6617Z" fill="#8D8D8D"/>
<path d="M1.99994 23.1417C1.80994 23.1417 1.61994 23.0717 1.46994 22.9217C1.17994 22.6317 1.17994 22.1517 1.46994 21.8617L8.93994 14.3917C9.22994 14.1017 9.70994 14.1017 9.99994 14.3917C10.2899 14.6817 10.2899 15.1617 9.99994 15.4517L2.52994 22.9217C2.37994 23.0717 2.18994 23.1417 1.99994 23.1417Z" fill="#8D8D8D"/>
<path d="M14.53 10.6117C14.34 10.6117 14.15 10.5417 14 10.3917C13.71 10.1017 13.71 9.62166 14 9.33166L21.47 1.86167C21.76 1.57167 22.24 1.57167 22.53 1.86167C22.82 2.15167 22.82 2.63166 22.53 2.92166L15.06 10.3917C14.91 10.5417 14.72 10.6117 14.53 10.6117Z" fill="#8D8D8D"/>
</svg>
