<svg width="21" height="20" viewBox="0 0 21 20" fill="none" xmlns="http://www.w3.org/2000/svg">
<path d="M5.81929 10.5111H7.98929V19.0853C7.98929 19.2546 8.1322 19.3917 8.30858 19.3917H11.9879C12.1643 19.3917 12.3072 19.2546 12.3072 19.0853V10.5515H14.8018C14.964 10.5515 15.1004 10.4347 15.119 10.2801L15.4978 7.12349C15.5082 7.03664 15.4796 6.94967 15.419 6.88451C15.3584 6.8193 15.2717 6.78198 15.1807 6.78198H12.3073V4.80328C12.3073 4.2068 12.6419 3.90433 13.302 3.90433C13.396 3.90433 15.1807 3.90433 15.1807 3.90433C15.3571 3.90433 15.5 3.7671 15.5 3.59788V0.700443C15.5 0.531159 15.3571 0.393991 15.1807 0.393991H12.5915C12.5733 0.393133 12.5327 0.391724 12.473 0.391724C12.0237 0.391724 10.4622 0.476365 9.22866 1.56549C7.86195 2.77242 8.05193 4.21753 8.09734 4.46808V6.78191H5.81929C5.64292 6.78191 5.5 6.91908 5.5 7.08837V10.2046C5.5 10.3739 5.64292 10.5111 5.81929 10.5111Z" fill="#1976D2"/>
</svg>
