<svg width="22" height="22" viewBox="0 0 22 22" fill="none" xmlns="http://www.w3.org/2000/svg">
<path d="M20.1885 11.0957C20.1885 10.3403 20.1259 9.78907 19.9906 9.21741H11.1885V12.627H16.3551C16.251 13.4743 15.6884 14.7503 14.4384 15.6078L14.4209 15.722L17.204 17.8348L17.3968 17.8537C19.1676 16.251 20.1885 13.8928 20.1885 11.0957Z" fill="#4285F4"/>
<path d="M11.188 20.0791C13.7192 20.0791 15.8441 19.2624 17.3963 17.8536L14.4379 15.6077C13.6463 16.1488 12.5838 16.5265 11.188 16.5265C8.70886 16.5265 6.6047 14.9238 5.85463 12.7086L5.74469 12.7177L2.85083 14.9126L2.81299 15.0157C4.35464 18.0169 7.52131 20.0791 11.188 20.0791Z" fill="#34A853"/>
<path d="M5.85485 12.7088C5.65694 12.1372 5.5424 11.5246 5.5424 10.8918C5.5424 10.2588 5.65694 9.64633 5.84444 9.07467L5.8392 8.95287L2.90907 6.72284L2.81321 6.76753C2.17782 8.01299 1.81323 9.41152 1.81323 10.8918C1.81323 12.3719 2.17782 13.7705 2.81321 15.0159L5.85485 12.7088Z" fill="#FBBC05"/>
<path d="M11.188 5.2567C12.9484 5.2567 14.1359 6.00191 14.813 6.62466L17.4588 4.09297C15.8339 2.61277 13.7193 1.70422 11.188 1.70422C7.52131 1.70422 4.35464 3.76629 2.81299 6.76751L5.84423 9.07463C6.60472 6.85943 8.70886 5.2567 11.188 5.2567Z" fill="#EB4335"/>
</svg>
