<svg width="25" height="24" viewBox="0 0 25 24" fill="none" xmlns="http://www.w3.org/2000/svg">
<path d="M15.1998 22.75H9.79977C4.85977 22.75 2.75977 20.64 2.75977 15.71V11.22C2.75977 10.81 3.09977 10.47 3.50977 10.47C3.91977 10.47 4.25977 10.81 4.25977 11.22V15.71C4.25977 19.8 5.70977 21.25 9.79977 21.25H15.1898C19.2798 21.25 20.7298 19.8 20.7298 15.71V11.22C20.7298 10.81 21.0698 10.47 21.4798 10.47C21.8898 10.47 22.2298 10.81 22.2298 11.22V15.71C22.2398 20.64 20.1298 22.75 15.1998 22.75Z" fill="#161616"/>
<path d="M12.5 12.75C11.4 12.75 10.4 12.32 9.69 11.53C8.98 10.74 8.65 9.71 8.76 8.61L9.43 1.93C9.47 1.55 9.79 1.25 10.18 1.25H14.85C15.24 1.25 15.56 1.54 15.6 1.93L16.27 8.61C16.38 9.71 16.05 10.74 15.34 11.53C14.6 12.32 13.6 12.75 12.5 12.75ZM10.85 2.75L10.25 8.76C10.18 9.43 10.38 10.06 10.8 10.52C11.65 11.46 13.35 11.46 14.2 10.52C14.62 10.05 14.82 9.42 14.75 8.76L14.15 2.75H10.85Z" fill="#161616"/>
<path d="M18.81 12.75C16.78 12.75 14.97 11.11 14.76 9.09L14.06 2.08C14.04 1.87 14.11 1.66 14.25 1.5C14.39 1.34 14.59 1.25 14.81 1.25H17.86C20.8 1.25 22.17 2.48 22.58 5.5L22.86 8.28C22.98 9.46 22.62 10.58 21.85 11.43C21.08 12.28 20 12.75 18.81 12.75ZM15.64 2.75L16.26 8.94C16.39 10.19 17.55 11.25 18.81 11.25C19.57 11.25 20.25 10.96 20.74 10.43C21.22 9.9 21.44 9.19 21.37 8.43L21.09 5.68C20.78 3.42 20.05 2.75 17.86 2.75H15.64V2.75Z" fill="#161616"/>
<path d="M6.14002 12.75C4.95002 12.75 3.87002 12.28 3.10002 11.43C2.33002 10.58 1.97002 9.46 2.09002 8.28L2.36002 5.53C2.78002 2.48 4.15002 1.25 7.09002 1.25H10.14C10.35 1.25 10.55 1.34 10.7 1.5C10.85 1.66 10.91 1.87 10.89 2.08L10.19 9.09C9.98002 11.11 8.17002 12.75 6.14002 12.75ZM7.09002 2.75C4.90002 2.75 4.17002 3.41 3.85002 5.7L3.58002 8.43C3.50002 9.19 3.73002 9.9 4.21002 10.43C4.69002 10.96 5.37002 11.25 6.14002 11.25C7.40002 11.25 8.57002 10.19 8.69002 8.94L9.31002 2.75H7.09002V2.75Z" fill="#161616"/>
<path d="M15 22.75H10C9.59 22.75 9.25 22.41 9.25 22V19.5C9.25 17.4 10.4 16.25 12.5 16.25C14.6 16.25 15.75 17.4 15.75 19.5V22C15.75 22.41 15.41 22.75 15 22.75ZM10.75 21.25H14.25V19.5C14.25 18.24 13.76 17.75 12.5 17.75C11.24 17.75 10.75 18.24 10.75 19.5V21.25Z" fill="#161616"/>
</svg>
