<svg width="114" height="134" viewBox="0 0 114 134" fill="none" xmlns="http://www.w3.org/2000/svg">
<path d="M54.2553 0.391724C62 0.391724 69.234 1.7132 75.9575 4.35615C82.6808 6.99909 88.5106 10.6651 93.4468 15.3542C98.4681 19.9581 102.383 25.4145 105.191 31.7235C108.085 37.9472 109.532 44.6398 109.532 51.8013C109.532 60.5827 107.362 68.6821 103.021 76.0994C98.766 83.4315 92.766 89.6126 85.0213 94.6427C83.5745 95.5805 82.1702 96.4331 80.8085 97.2004C79.5319 97.8824 78.0426 98.6071 76.3404 99.3744C74.6383 100.142 72.6383 100.952 70.3404 101.804C68.1277 102.657 65.4468 103.637 62.2979 104.746C60.4255 105.428 58.8085 106.024 57.4468 106.536C56.1702 107.047 55.0213 107.516 54 107.943C52.9787 108.454 52.0426 108.923 51.1915 109.349C50.4255 109.861 49.6596 110.372 48.8936 110.884V111.396C49.4894 111.31 50.2553 111.225 51.1915 111.14C52.1277 111.14 53.0213 111.14 53.8723 111.14C57.5319 111.14 60.9787 111.523 64.2128 112.291C67.5319 113.143 70.766 114.039 73.9149 114.976C77.1489 115.914 80.383 116.767 83.617 117.534C86.8511 118.387 90.2553 118.813 93.8298 118.813C97.9149 118.813 101.106 118.088 103.404 116.639C105.702 115.189 107.489 112.76 108.766 109.349H113.489C113.66 110.458 113.787 111.481 113.872 112.419C113.957 113.356 114 114.166 114 114.848C114 117.491 113.404 119.921 112.213 122.138C111.021 124.44 109.362 126.401 107.234 128.021C105.106 129.726 102.596 131.047 99.7021 131.985C96.8085 132.923 93.7021 133.392 90.383 133.392C85.617 133.392 81.1915 132.582 77.1064 130.962C73.0213 129.342 69.1064 127.552 65.3617 125.591C61.617 123.63 58.0425 121.839 54.6383 120.22C51.234 118.6 47.8723 117.79 44.5532 117.79C42.2553 117.79 40.383 118.173 38.9362 118.941C37.4894 119.708 36.1702 120.518 34.9787 121.371C33.8723 122.308 32.7234 123.161 31.5319 123.928C30.4255 124.696 29.0638 125.079 27.4468 125.079C26 125.079 24.8511 124.738 24 124.056C23.1489 123.374 22.7234 122.522 22.7234 121.498C22.7234 120.049 23.3617 118.685 24.6383 117.406C26 116.213 28.4681 114.635 32.0426 112.674L48.1277 103.595C41.3191 102.998 34.9787 101.25 29.1064 98.3513C23.234 95.4526 18.1277 91.7013 13.7872 87.0975C9.53192 82.4936 6.17021 77.2077 3.70213 71.2398C1.23404 65.1866 0 58.7497 0 51.9292C0 44.6824 1.3617 37.9045 4.08511 31.5956C6.89362 25.2866 10.7234 19.8302 15.5745 15.2263C20.4255 10.6225 26.1702 6.99909 32.8085 4.35615C39.4468 1.7132 46.5957 0.391724 54.2553 0.391724ZM54.2553 96.3052C59.2766 96.3052 63.8298 95.2821 67.9149 93.236C72 91.1045 75.4468 88.1206 78.2553 84.284C81.1489 80.4475 83.3617 75.801 84.8936 70.3446C86.5106 64.8882 87.3191 58.835 87.3191 52.185C87.3191 45.535 86.5106 39.5244 84.8936 34.1533C83.3617 28.7821 81.1489 24.2209 78.2553 20.4696C75.4468 16.7183 72 13.8196 67.9149 11.7735C63.8298 9.7273 59.2766 8.70422 54.2553 8.70422C49.234 8.70422 44.7234 9.7273 40.7234 11.7735C36.8085 13.7343 33.4894 16.5904 30.766 20.3417C28.0426 24.093 25.9149 28.6542 24.383 34.0254C22.9362 39.3965 22.2128 45.4497 22.2128 52.185C22.2128 59.0055 22.9362 65.144 24.383 70.6004C25.9149 76.0568 28.0426 80.7033 30.766 84.5398C33.5745 88.2911 36.9362 91.1898 40.8511 93.236C44.8511 95.2821 49.3191 96.3052 54.2553 96.3052Z" fill="#161616"/>
</svg>
